<?xml version="1.0" standalone="no"?>
<!DOCTYPE svg PUBLIC "-//W3C//DTD SVG 20010904//EN"
 "http://www.w3.org/TR/2001/REC-SVG-20010904/DTD/svg10.dtd">
<svg version="1.0" xmlns="http://www.w3.org/2000/svg"
 width="2125.000000pt" height="2125.000000pt" viewBox="0 0 2125.000000 2125.000000"
 preserveAspectRatio="xMidYMid meet">
<metadata>
Created by potrace 1.14, written by Peter Selinger 2001-2017
</metadata>
<g transform="translate(0.000000,2125.000000) scale(0.100000,-0.100000)"
fill="#000000" stroke="none">
<path d="M15678 19585 c-2 -1 -77 -5 -168 -9 -186 -7 -260 -12 -340 -21 -30
-4 -68 -8 -85 -10 -56 -5 -146 -16 -168 -21 -12 -2 -42 -7 -67 -10 -25 -3 -76
-12 -115 -19 -38 -8 -88 -17 -110 -20 -22 -4 -48 -8 -57 -11 -10 -3 -30 -7
-45 -10 -16 -3 -66 -14 -113 -26 -46 -11 -89 -21 -95 -23 -10 -2 -67 -17 -135
-35 -19 -5 -66 -19 -105 -31 -38 -11 -77 -22 -85 -24 -46 -10 -318 -106 -442
-156 -27 -10 -72 -28 -100 -40 -136 -55 -255 -110 -468 -218 -214 -108 -230
-117 -295 -157 -22 -13 -47 -27 -55 -31 -62 -28 -433 -277 -595 -400 -346
-263 -707 -622 -946 -943 -58 -78 -179 -257 -179 -266 0 -2 -11 -21 -24 -42
-50 -79 -142 -272 -187 -392 -59 -156 -69 -160 -108 -40 -71 215 -177 424
-325 645 -33 49 -63 94 -68 100 -230 299 -438 522 -693 740 -32 28 -63 55 -69
60 -6 6 -31 26 -56 45 -25 19 -50 39 -56 45 -7 5 -24 19 -39 30 -32 23 -135
101 -151 114 -5 4 -20 13 -31 20 -12 6 -27 17 -35 24 -23 23 -397 262 -438
280 -8 4 -31 17 -50 28 -110 67 -552 289 -575 289 -2 0 -30 12 -62 26 -102 46
-116 52 -294 118 -165 61 -434 149 -509 167 -19 4 -98 24 -175 44 -77 19 -156
38 -175 41 -19 3 -38 8 -41 9 -5 4 -286 54 -334 60 -404 53 -495 60 -845 60
-157 0 -330 -4 -385 -8 -166 -13 -204 -16 -232 -21 -16 -3 -53 -8 -83 -11 -30
-3 -62 -7 -70 -10 -8 -2 -37 -6 -65 -10 -27 -3 -57 -8 -65 -10 -8 -2 -31 -6
-50 -9 -50 -8 -93 -16 -110 -21 -8 -2 -29 -7 -46 -10 -66 -11 -353 -86 -444
-116 -52 -17 -99 -32 -105 -34 -5 -1 -17 -5 -25 -8 -8 -3 -37 -13 -65 -22 -27
-10 -59 -21 -70 -25 -11 -4 -36 -14 -55 -20 -38 -14 -75 -29 -130 -53 -19 -8
-60 -25 -90 -38 -56 -23 -399 -194 -455 -227 -16 -9 -46 -27 -65 -39 -20 -12
-47 -28 -60 -35 -196 -107 -639 -432 -900 -661 -244 -215 -542 -520 -690 -707
-19 -24 -47 -58 -61 -75 -202 -238 -491 -695 -639 -1010 -91 -195 -222 -515
-235 -578 -2 -9 -7 -22 -10 -27 -3 -5 -8 -18 -10 -29 -2 -10 -15 -56 -30 -102
-15 -46 -28 -91 -30 -99 -2 -8 -15 -62 -30 -120 -15 -58 -29 -114 -31 -125 -2
-11 -11 -55 -20 -98 -8 -42 -17 -87 -19 -100 -2 -12 -11 -65 -19 -117 -8 -52
-18 -115 -20 -140 -3 -25 -8 -67 -11 -95 -27 -233 -36 -608 -21 -840 10 -155
25 -322 31 -355 2 -9 6 -43 10 -75 12 -108 28 -210 35 -232 3 -9 4 -14 14 -78
27 -161 97 -441 164 -660 55 -175 158 -462 203 -563 16 -35 29 -70 29 -78 0
-8 5 -14 10 -14 6 0 10 -7 10 -14 0 -29 165 -370 282 -585 202 -370 426 -710
730 -1106 13 -16 37 -45 53 -65 17 -19 70 -82 117 -140 91 -110 99 -120 206
-240 155 -173 380 -402 577 -585 70 -66 142 -133 160 -150 18 -16 67 -61 110
-100 44 -38 90 -81 104 -94 14 -13 52 -46 85 -75 32 -28 71 -62 86 -76 15 -14
58 -52 95 -85 38 -33 78 -69 91 -80 12 -11 50 -45 85 -75 72 -63 146 -128 169
-150 9 -8 40 -35 70 -60 29 -25 64 -54 76 -65 24 -21 115 -101 150 -132 36
-30 128 -110 150 -130 12 -10 43 -36 69 -58 26 -22 53 -45 59 -50 6 -6 42 -37
81 -70 38 -33 75 -64 81 -70 6 -5 33 -28 60 -50 26 -22 59 -50 71 -62 13 -11
42 -36 65 -55 23 -18 54 -44 69 -58 15 -14 39 -34 52 -45 96 -81 144 -121 153
-130 6 -5 29 -25 52 -43 23 -19 51 -43 64 -54 13 -11 43 -36 67 -56 24 -21 54
-46 67 -57 29 -26 57 -50 124 -105 30 -25 60 -49 66 -55 6 -5 30 -26 54 -45
45 -37 70 -59 110 -93 14 -12 50 -42 80 -67 30 -25 57 -47 60 -50 3 -3 30 -25
60 -50 30 -25 62 -52 70 -60 9 -8 34 -28 55 -45 21 -16 43 -34 49 -40 6 -5 38
-32 71 -60 33 -27 62 -52 65 -55 4 -4 119 -100 209 -175 13 -11 29 -25 35 -30
6 -6 36 -30 66 -55 30 -25 60 -49 66 -55 6 -5 29 -25 52 -43 23 -19 51 -43 64
-54 13 -11 40 -34 61 -51 44 -36 71 -59 107 -90 14 -12 52 -44 85 -72 33 -27
65 -54 71 -60 6 -5 31 -26 55 -47 24 -20 54 -44 65 -55 12 -10 41 -34 65 -55
24 -20 54 -44 65 -55 12 -10 43 -36 68 -57 26 -21 60 -51 76 -65 17 -14 44
-38 62 -53 18 -15 43 -35 54 -45 12 -10 43 -36 69 -58 26 -22 60 -51 74 -64
14 -13 51 -44 81 -70 30 -25 67 -58 83 -74 16 -15 32 -27 36 -27 3 0 13 -8 22
-17 8 -10 37 -37 65 -60 59 -50 73 -62 155 -135 35 -31 75 -66 89 -78 14 -12
54 -47 89 -78 35 -31 73 -65 85 -75 12 -10 50 -45 86 -77 36 -32 74 -67 86
-77 18 -15 122 -110 213 -192 33 -30 224 -206 265 -244 376 -349 889 -866
1156 -1167 36 -40 76 -85 90 -101 14 -15 41 -46 60 -69 19 -23 42 -50 51 -59
9 -9 47 -54 85 -101 38 -47 71 -87 74 -90 6 -6 74 -92 147 -187 27 -34 59 -76
73 -94 14 -17 41 -55 60 -83 69 -101 92 -126 115 -126 17 0 50 38 146 167 231
311 500 633 755 903 33 36 99 105 145 154 222 236 668 671 989 966 69 63 127
117 130 120 11 12 366 330 430 386 25 21 47 41 50 44 3 3 59 52 125 110 66 58
125 110 131 115 6 6 37 33 69 60 33 28 113 97 180 155 67 58 148 128 180 155
32 28 75 64 94 81 49 42 282 240 471 399 85 72 166 140 180 152 26 22 147 122
213 177 22 17 45 36 52 43 7 6 75 64 151 128 77 64 150 126 164 138 14 13 63
54 110 92 47 38 87 72 90 75 3 3 59 50 125 105 66 55 122 102 125 105 3 3 61
52 130 109 69 57 148 123 175 146 28 24 73 62 100 85 28 23 59 49 70 59 11 9
92 77 180 151 88 74 171 144 185 156 14 12 111 95 215 184 105 89 201 171 215
183 14 12 70 60 125 107 55 47 102 87 105 90 3 3 34 30 70 61 88 76 399 345
430 373 14 12 50 44 80 71 86 75 199 175 260 230 31 28 89 79 129 115 41 36
79 70 85 75 6 6 58 53 116 105 175 159 200 181 309 285 151 144 386 382 496
505 213 236 333 381 499 601 65 85 122 161 129 169 74 92 385 582 468 735 23
44 52 96 64 115 33 52 217 431 260 535 40 97 50 119 89 208 14 31 25 58 25 60
0 2 -2 -2 55 157 41 113 85 249 90 275 1 6 14 48 29 95 24 80 73 264 84 320 5
27 6 31 16 70 7 26 14 62 23 115 3 17 7 41 10 55 3 14 9 52 15 84 5 33 12 62
14 65 2 4 6 31 9 61 8 66 14 113 21 160 20 139 39 447 39 650 0 145 -11 413
-18 460 -2 14 -7 54 -11 90 -7 72 -6 70 -30 230 -9 63 -20 131 -25 150 -5 19
-11 51 -14 70 -11 70 -18 98 -57 250 -36 144 -100 358 -119 405 -5 11 -21 54
-36 95 -88 244 -225 534 -370 786 -137 238 -387 595 -533 759 -14 16 -39 45
-54 65 -108 134 -399 426 -591 595 -38 33 -76 67 -85 76 -9 8 -52 44 -96 79
-44 35 -82 67 -85 70 -6 7 -93 73 -157 120 -26 19 -50 37 -53 40 -3 3 -27 21
-55 39 -27 19 -52 38 -55 41 -11 12 -130 90 -139 90 -5 0 -11 3 -13 8 -4 9
-65 52 -74 52 -4 0 -21 11 -38 23 -17 13 -51 35 -76 49 -25 14 -88 50 -140 80
-53 30 -161 86 -240 125 -126 62 -183 87 -325 148 -16 7 -57 23 -90 35 -33 12
-69 26 -80 31 -23 10 -222 78 -245 83 -8 2 -62 18 -120 35 -96 27 -320 82
-395 95 -142 26 -204 37 -241 41 -22 3 -71 9 -111 14 -39 6 -100 13 -135 16
-35 4 -81 8 -103 11 -22 2 -128 7 -235 10 -107 3 -203 7 -212 8 -9 2 -18 3
-20 1z"/>
</g>
</svg>
